<mxfile host="app.diagrams.net" agent="Mozilla/5.0 (Windows NT 10.0; Win64; x64) AppleWebKit/537.36 (KHTML, like Gecko) Chrome/135.0.0.0 Safari/537.36" version="26.2.14">
  <diagram name="第 1 页" id="ItwJp0JtqJKbyViM8eip">
    <mxGraphModel dx="1042" dy="614" grid="1" gridSize="10" guides="1" tooltips="1" connect="1" arrows="1" fold="1" page="1" pageScale="1" pageWidth="827" pageHeight="1169" math="0" shadow="0">
      <root>
        <mxCell id="0" />
        <mxCell id="1" parent="0" />
        <mxCell id="dy_yOYg7EmUGHhkiSsWT-28" value="" style="edgeStyle=none;curved=1;rounded=0;orthogonalLoop=1;jettySize=auto;html=1;fontSize=12;startSize=8;endSize=8;" edge="1" parent="1" source="dy_yOYg7EmUGHhkiSsWT-26" target="dy_yOYg7EmUGHhkiSsWT-27">
          <mxGeometry relative="1" as="geometry" />
        </mxCell>
        <mxCell id="dy_yOYg7EmUGHhkiSsWT-26" value="&lt;font style=&quot;font-size: 16px;&quot;&gt;开始&lt;/font&gt;" style="ellipse;whiteSpace=wrap;html=1;" vertex="1" parent="1">
          <mxGeometry x="190" y="140" width="120" height="80" as="geometry" />
        </mxCell>
        <mxCell id="dy_yOYg7EmUGHhkiSsWT-30" value="" style="edgeStyle=none;curved=1;rounded=0;orthogonalLoop=1;jettySize=auto;html=1;fontSize=12;startSize=8;endSize=8;" edge="1" parent="1" source="dy_yOYg7EmUGHhkiSsWT-27" target="dy_yOYg7EmUGHhkiSsWT-29">
          <mxGeometry relative="1" as="geometry" />
        </mxCell>
        <mxCell id="dy_yOYg7EmUGHhkiSsWT-27" value="&lt;font style=&quot;font-size: 16px;&quot;&gt;知识库准备&lt;/font&gt;" style="whiteSpace=wrap;html=1;" vertex="1" parent="1">
          <mxGeometry x="190" y="250" width="120" height="60" as="geometry" />
        </mxCell>
        <mxCell id="dy_yOYg7EmUGHhkiSsWT-32" value="" style="edgeStyle=none;curved=1;rounded=0;orthogonalLoop=1;jettySize=auto;html=1;fontSize=12;startSize=8;endSize=8;" edge="1" parent="1" source="dy_yOYg7EmUGHhkiSsWT-29" target="dy_yOYg7EmUGHhkiSsWT-31">
          <mxGeometry relative="1" as="geometry" />
        </mxCell>
        <mxCell id="dy_yOYg7EmUGHhkiSsWT-29" value="&lt;font style=&quot;font-size: 16px;&quot;&gt;上传加载知识库文件&lt;/font&gt;" style="whiteSpace=wrap;html=1;" vertex="1" parent="1">
          <mxGeometry x="190" y="350" width="120" height="60" as="geometry" />
        </mxCell>
        <mxCell id="dy_yOYg7EmUGHhkiSsWT-34" value="" style="edgeStyle=none;curved=1;rounded=0;orthogonalLoop=1;jettySize=auto;html=1;fontSize=12;startSize=8;endSize=8;" edge="1" parent="1" source="dy_yOYg7EmUGHhkiSsWT-31" target="dy_yOYg7EmUGHhkiSsWT-33">
          <mxGeometry relative="1" as="geometry" />
        </mxCell>
        <mxCell id="dy_yOYg7EmUGHhkiSsWT-31" value="&lt;font style=&quot;font-size: 16px;&quot;&gt;文本分割处理&lt;/font&gt;" style="whiteSpace=wrap;html=1;" vertex="1" parent="1">
          <mxGeometry x="190" y="450" width="120" height="60" as="geometry" />
        </mxCell>
        <mxCell id="dy_yOYg7EmUGHhkiSsWT-36" value="" style="edgeStyle=none;curved=1;rounded=0;orthogonalLoop=1;jettySize=auto;html=1;fontSize=12;startSize=8;endSize=8;" edge="1" parent="1" source="dy_yOYg7EmUGHhkiSsWT-33" target="dy_yOYg7EmUGHhkiSsWT-35">
          <mxGeometry relative="1" as="geometry" />
        </mxCell>
        <mxCell id="dy_yOYg7EmUGHhkiSsWT-33" value="&lt;font style=&quot;font-size: 16px;&quot;&gt;向量化嵌入&lt;/font&gt;" style="whiteSpace=wrap;html=1;" vertex="1" parent="1">
          <mxGeometry x="354" y="450" width="120" height="60" as="geometry" />
        </mxCell>
        <mxCell id="dy_yOYg7EmUGHhkiSsWT-38" value="" style="edgeStyle=none;curved=1;rounded=0;orthogonalLoop=1;jettySize=auto;html=1;fontSize=12;startSize=8;endSize=8;" edge="1" parent="1" source="dy_yOYg7EmUGHhkiSsWT-35" target="dy_yOYg7EmUGHhkiSsWT-37">
          <mxGeometry relative="1" as="geometry" />
        </mxCell>
        <mxCell id="dy_yOYg7EmUGHhkiSsWT-35" value="&lt;font style=&quot;font-size: 16px;&quot;&gt;构建向量数据库&lt;/font&gt;" style="whiteSpace=wrap;html=1;" vertex="1" parent="1">
          <mxGeometry x="354" y="350" width="120" height="60" as="geometry" />
        </mxCell>
        <mxCell id="dy_yOYg7EmUGHhkiSsWT-37" value="&lt;span style=&quot;font-size: 16px;&quot;&gt;结束&lt;/span&gt;" style="ellipse;whiteSpace=wrap;html=1;" vertex="1" parent="1">
          <mxGeometry x="354" y="230" width="120" height="80" as="geometry" />
        </mxCell>
      </root>
    </mxGraphModel>
  </diagram>
</mxfile>
